<svg width="19" height="14" viewBox="0 0 19 14" fill="none" xmlns="http://www.w3.org/2000/svg">
<path d="M17.0367 5.7875C17.29 6.1425 17.4167 6.32083 17.4167 6.58333C17.4167 6.84667 17.29 7.02417 17.0367 7.37917C15.8983 8.97583 12.9908 12.4167 9.08333 12.4167C5.175 12.4167 2.26833 8.975 1.13 7.37917C0.876667 7.02417 0.75 6.84583 0.75 6.58333C0.75 6.32 0.876667 6.1425 1.13 5.7875C2.26833 4.19083 5.17583 0.75 9.08333 0.75C12.9917 0.75 15.8983 4.19167 17.0367 5.7875Z" stroke="#171717" stroke-width="1.5"/>
<path d="M11.583 6.58325C11.583 5.92021 11.3196 5.28433 10.8508 4.81548C10.3819 4.34664 9.74605 4.08325 9.08301 4.08325C8.41997 4.08325 7.78408 4.34664 7.31524 4.81548C6.8464 5.28433 6.58301 5.92021 6.58301 6.58325C6.58301 7.24629 6.8464 7.88218 7.31524 8.35102C7.78408 8.81986 8.41997 9.08325 9.08301 9.08325C9.74605 9.08325 10.3819 8.81986 10.8508 8.35102C11.3196 7.88218 11.583 7.24629 11.583 6.58325Z" stroke="#171717" stroke-width="1.5"/>
</svg>
